PathFileType	4	(X/Y/Z)	RBDS015static.trc
DataRate	CameraRate	NumFrames	NumMarkers	Units	OrigDataRate	OrigDataStartFrame	OrigNumFrames
150.000000	150.000000	4	48	mm	150.000000	37	150
Frame#	Time	L.Ankle			L.Ankle.Medial			L.ASIS			L.GTR			L.Heel.Bottom			L.Heel.Lateral			L.Heel.Top			L.HF			L.Iliac.Crest			L.Knee			L.Knee.Medial			L.MT1			L.MT2			L.MT5			L.PSIS			L.Shank.Bottom.Lateral			L.Shank.Bottom.Medial			L.Shank.Top.Lateral			L.Shank.Top.Medial			L.Thigh.Bottom.Lateral			L.Thigh.Bottom.Medial			L.Thigh.Top.Lateral			L.Thigh.Top.Medial			L.TT			R.Ankle			R.Ankle.Medial			R.ASIS			R.GTR			R.Heel.Bottom			R.Heel.Lateral			R.Heel.Top			R.HF			R.Iliac.Crest			R.Knee			R.Knee.Medial			R.MT1			R.MT2			R.MT5			R.PSIS			R.Shank.Bottom.Lateral			R.Shank.Bottom.Medial			R.Shank.Top.Lateral			R.Shank.Top.Medial			R.Thigh.Bottom.Lateral			R.Thigh.Bottom.Medial			R.Thigh.Top.Lateral			R.Thigh.Top.Medial			R.TT			
		X1	Y1	Z1	X2	Y2	Z2	X3	Y3	Z3	X4	Y4	Z4	X5	Y5	Z5	X6	Y6	Z6	X7	Y7	Z7	X8	Y8	Z8	X9	Y9	Z9	X10	Y10	Z10	X11	Y11	Z11	X12	Y12	Z12	X13	Y13	Z13	X14	Y14	Z14	X15	Y15	Z15	X16	Y16	Z16	X17	Y17	Z17	X18	Y18	Z18	X19	Y19	Z19	X20	Y20	Z20	X21	Y21	Z21	X22	Y22	Z22	X23	Y23	Z23	X24	Y24	Z24	X25	Y25	Z25	X26	Y26	Z26	X27	Y27	Z27	X28	Y28	Z28	X29	Y29	Z29	X30	Y30	Z30	X31	Y31	Z31	X32	Y32	Z32	X33	Y33	Z33	X34	Y34	Z34	X35	Y35	Z35	X36	Y36	Z36	X37	Y37	Z37	X38	Y38	Z38	X39	Y39	Z39	X40	Y40	Z40	X41	Y41	Z41	X42	Y42	Z42	X43	Y43	Z43	X44	Y44	Z44	X45	Y45	Z45	X46	Y46	Z46	X47	Y47	Z47	X48	Y48	Z48	

38	0.2466666666666667	699.7427978515625	107.6077880859375	1032.695678710938	714.7094116210938	118.2631301879883	1120.859252929688	813.1768798828125	1081.644897460938	1094.943969726563	726.7539672851563	988.8026733398438	1049.030517578125	636.9570922851563	39.91899490356445	1081.421752929688	661.1951904296875	58.29317474365234	1040.404663085938	642.80859375	82.34828186035156	1082.304931640625	695.7333374023438	511.5339050292969	1055.260009765625	732.7268676757813	1158.555786132813	1062.053955078125	696.0980834960938	571.2780151367188	1061.401123046875	701.2693481445313	556.145751953125	1190.212646484375	843.8773803710938	61.17176818847656	1125.6494140625	853.1171875	70.78321838378906	1079.529907226563	817.3983764648438	48.58401870727539	1013.127502441406	638.8865966796875	1121.570434570313	1178.502197265625	692.0728149414063	210.9413757324219	1033.2978515625	648.772705078125	204.9719085693359	1060.379272460938	682.9561157226563	291.2406311035156	1028.296020507813	638.1231689453125	288.8062438964844	1057.077270507813	714.12744140625	704.5599365234375	1040.955688476563	653.8547973632813	703.6083374023438	1072.843017578125	709.5853271484375	814.94775390625	1035.58984375	647.9987182617188	813.6450805664063	1074.517211914063	753.3793334960938	476.7216491699219	1102.771606445313	692.328125	114.9054336547852	1413.020629882813	716.7461547851563	117.7196502685547	1326.759765625	833.106689453125	1075.168823242188	1323.130126953125	753.9759521484375	989.498779296875	1381.324829101563	633.0043334960938	41.07495498657227	1370.233642578125	660.6848754882813	61.73296356201172	1411.357666015625	641.4757690429688	87.70834350585938	1370.369506835938	715.6517944335938	511.3271789550781	1376.168212890625	752.1949462890625	1157.904174804688	1368.585327148438	717.302734375	576.7620239257813	1368.85205078125	732.5191040039063	550.8290405273438	1242.634765625	843.10693359375	59.64489364624023	1326.565673828125	851.2099609375	72.90019226074219	1375.505493164063	808.2764282226563	50.09381103515625	1441.295166015625	644.872314453125	1121.32763671875	1269.996826171875	701.5493774414063	208.8499298095703	1408.978271484375	653.4396362304688	205.9019622802734	1381.287475585938	694.2702026367188	290.0962219238281	1410.333984375	648.4948120117188	286.2936401367188	1382.249877929688	729.9551391601563	725.541015625	1387.915283203125	667.04296875	721.8580322265625	1349.39306640625	717.5328369140625	834.8162231445313	1390.82373046875	659.6980590820313	831.5210571289063	1351.695556640625	776.794677734375	486.5426025390625	1330.578125	
39	0.2533333333333334	699.7425537109375	107.6171493530273	1032.68896484375	714.7158203125	118.2606506347656	1120.866943359375	813.2200927734375	1081.632446289063	1094.942993164063	726.7798461914063	988.7931518554688	1049.038818359375	636.960693359375	39.92333602905273	1081.405395507813	661.2096557617188	58.30398559570313	1040.3935546875	642.8060913085938	82.35372161865234	1082.306518554688	695.7356567382813	511.5304870605469	1055.262573242188	732.756591796875	1158.558959960938	1062.052978515625	696.1051025390625	571.2766723632813	1061.404296875	701.2862548828125	556.1316528320313	1190.22021484375	843.8969116210938	61.17505264282227	1125.647827148438	853.1226806640625	70.77565765380859	1079.52294921875	817.3953247070313	48.58173370361328	1013.122131347656	638.9176025390625	1121.583374023438	1178.522094726563	691.864013671875	211.0695190429688	1033.2099609375	648.77490234375	204.9685211181641	1060.390869140625	682.9561767578125	291.24462890625	1028.289672851563	638.120361328125	288.8096008300781	1057.074340820313	714.1318969726563	704.5626220703125	1040.95849609375	653.866455078125	703.611572265625	1072.849731445313	709.6032104492188	814.9530029296875	1035.592163085938	648.0110473632813	813.6473999023438	1074.52880859375	753.3927001953125	476.7100219726563	1102.757934570313	692.34130859375	114.8417358398438	1412.829345703125	716.739013671875	117.7136764526367	1326.763671875	833.1607666015625	1075.156372070313	1323.1279296875	754.0150756835938	989.4887084960938	1381.335327148438	633.0092163085938	41.073974609375	1370.222045898438	660.6765747070313	61.73922729492188	1411.356323242188	641.469970703125	87.72681427001953	1370.379638671875	715.6614990234375	511.3244323730469	1376.172607421875	752.2607421875	1157.90478515625	1368.592041015625	717.3196411132813	576.7642822265625	1368.853759765625	732.5230712890625	550.826171875	1242.630004882813	843.1004638671875	59.65056991577148	1326.560668945313	851.2084350585938	72.90076446533203	1375.497924804688	808.27392578125	50.09147644042969	1441.303833007813	644.9215087890625	1121.34130859375	1270.024291992188	701.5565795898438	208.8516235351563	1408.986206054688	653.4429931640625	205.9154052734375	1381.298217773438	694.2886352539063	290.1016540527344	1410.33349609375	648.4990234375	286.3018188476563	1382.261596679688	729.9894409179688	725.53857421875	1387.9365234375	667.07421875	721.8701782226563	1349.401733398438	717.5707397460938	834.810546875	1390.828125	659.7274169921875	831.5237426757813	1351.714111328125	776.8032836914063	486.5401611328125	1330.575073242188	
40	0.26	699.7450561523438	107.6128082275391	1032.687622070313	714.72265625	118.2595672607422	1120.860961914063	813.2510375976563	1081.627197265625	1094.952270507813	726.8056640625	988.7943115234375	1049.050659179688	636.9630737304688	39.91657257080078	1081.419311523438	661.2054443359375	58.30009841918945	1040.398803710938	642.8028564453125	82.35237884521484	1082.301635742188	695.7411499023438	511.5308532714844	1055.270874023438	732.7999877929688	1158.560791015625	1062.058471679688	696.1044921875	571.2781372070313	1061.4091796875	701.2977905273438	556.1290283203125	1190.228271484375	843.8895263671875	61.17522430419922	1125.648193359375	853.1207275390625	70.77185821533203	1079.520263671875	817.4075927734375	48.58176422119141	1013.126586914063	638.9633178710938	1121.587768554688	1178.538452148438	692.0756225585938	210.9455871582031	1033.302490234375	648.7760620117188	204.9764404296875	1060.391357421875	682.9478149414063	291.2498779296875	1028.296752929688	638.1216430664063	288.8191528320313	1057.086181640625	714.1459350585938	704.5623168945313	1040.973510742188	653.8837890625	703.6249389648438	1072.869262695313	709.6151123046875	814.9591674804688	1035.603637695313	648.0306396484375	813.6503295898438	1074.530639648438	753.3773803710938	476.716552734375	1102.77099609375	692.3447265625	114.8328170776367	1412.83056640625	716.7360229492188	117.7145233154297	1326.761596679688	833.2069091796875	1075.144897460938	1323.126220703125	754.0639038085938	989.4866333007813	1381.344360351563	633.0066528320313	41.07516860961914	1370.22705078125	660.6788940429688	61.74250411987305	1411.354614257813	641.470458984375	87.71434020996094	1370.368041992188	715.67529296875	511.3201599121094	1376.177368164063	752.3138427734375	1157.901000976563	1368.602905273438	717.3390502929688	576.7676391601563	1368.86376953125	732.5465698242188	550.8230590820313	1242.644287109375	843.1015625	59.64458465576172	1326.551025390625	851.2092895507813	72.89532470703125	1375.497924804688	808.278076171875	50.0916748046875	1441.300170898438	644.9716186523438	1121.35009765625	1270.033447265625	701.563232421875	208.8549041748047	1408.98291015625	653.4500732421875	205.91455078125	1381.306396484375	694.3009033203125	290.1005249023438	1410.343139648438	648.5164184570313	286.296142578125	1382.275390625	730.0236206054688	725.539306640625	1387.936401367188	667.1090698242188	721.8768920898438	1349.41162109375	717.603515625	834.8135375976563	1390.833374023438	659.7625122070313	831.5350952148438	1351.732421875	776.8162231445313	486.5330810546875	1330.588500976563	
41	0.2666666666666667	699.7520751953125	107.6106414794922	1032.687622070313	714.7178955078125	118.2681121826172	1120.862670898438	813.2896728515625	1081.616943359375	1094.945922851563	726.8256225585938	988.787109375	1049.08056640625	636.966552734375	39.92007064819336	1081.405029296875	661.2034912109375	58.30972671508789	1040.392211914063	642.8138427734375	82.36118316650391	1082.30126953125	695.739501953125	511.5323486328125	1055.28076171875	732.830810546875	1158.55859375	1062.068237304688	696.1001586914063	571.2871704101563	1061.420166015625	701.3047485351563	556.1361083984375	1190.231567382813	843.8826293945313	61.16958999633789	1125.643432617188	853.1270141601563	70.77256774902344	1079.5244140625	817.3950805664063	48.58099365234375	1013.115112304688	639.0020751953125	1121.591552734375	1178.564086914063	692.070068359375	210.9554595947266	1033.310180664063	648.7713623046875	204.9775848388672	1060.389282226563	682.9419555664063	291.2523498535156	1028.299560546875	638.1221313476563	288.8175048828125	1057.083862304688	714.1406860351563	704.564697265625	1040.974365234375	653.8775634765625	703.6336669921875	1072.877807617188	709.6148071289063	814.9537963867188	1035.621459960938	648.0494384765625	813.654541015625	1074.549926757813	753.3889770507813	476.7169799804688	1102.777221679688	692.3408813476563	114.832893371582	1412.829223632813	716.7433471679688	117.7251739501953	1326.7607421875	833.2591552734375	1075.140747070313	1323.126098632813	754.11767578125	989.4798583984375	1381.359741210938	633.0072021484375	41.07501220703125	1370.236206054688	660.6824340820313	61.73297882080078	1411.359985351563	641.4710693359375	87.71585845947266	1370.366088867188	715.6929321289063	511.3248596191406	1376.18505859375	752.3709716796875	1157.89697265625	1368.60302734375	717.3557739257813	576.7615966796875	1368.883666992188	732.52294921875	550.8184204101563	1242.640502929688	843.1072998046875	59.64936828613281	1326.554809570313	851.20703125	72.90492248535156	1375.491943359375	808.2762451171875	50.09020614624023	1441.297973632813	645.0189208984375	1121.343383789063	1270.050170898438	701.565185546875	208.8469696044922	1408.99072265625	653.4473266601563	205.9115600585938	1381.300170898438	694.3070678710938	290.0932006835938	1410.347778320313	648.5155639648438	286.3013916015625	1382.283935546875	730.04736328125	725.5293579101563	1387.9462890625	667.1453857421875	721.8839721679688	1349.4228515625	717.6407470703125	834.81201171875	1390.84521484375	659.7924194335938	831.5275268554688	1351.738647460938	776.8164672851563	486.5252075195313	1330.590209960938	
